<svg width="18" height="18" viewBox="0 0 18 18" xmlns="http://www.w3.org/2000/svg" xmlns:xlink="http://www.w3.org/1999/xlink"><defs><filter x="-12.5%" y="-6.2%" width="125%" height="125%" filterUnits="objectBoundingBox" id="svgo-inline-loader-a"><feOffset dy="1" in="SourceAlpha" result="shadowOffsetOuter1"/><feGaussianBlur stdDeviation=".5" in="shadowOffsetOuter1" result="shadowBlurOuter1"/><feColorMatrix values="0 0 0 0 0 0 0 0 0 0 0 0 0 0 0 0 0 0 0.20074847 0" in="shadowBlurOuter1"/></filter><path d="M24.878 19.66V30h-1.882A1.993 1.993 0 0121 28.01v-6.36c0-1.1.894-1.99 1.996-1.99h1.882zm5.17-5.493c.868.42 1.44 1.478 1.44 2.892 0 .846-.105 1.713-.316 2.601H35a2 2 0 011.942 2.479L35.68 27.26A3.6 3.6 0 0132.184 30h-5.851l.001-10.853c1.047-.762 1.658-2.096 1.834-4.038.087-.964 1.005-1.364 1.88-.942z" id="svgo-inline-loader-b"/></defs><g transform="translate(-20 -14)" fill-rule="nonzero" fill="none"><use fill="#000" filter="url(#svgo-inline-loader-a)" xlink:href="#svgo-inline-loader-b"/><use fill="#FFF" xlink:href="#svgo-inline-loader-b"/></g></svg>