<svg width="18" height="18" viewBox="0 0 18 18" xmlns="http://www.w3.org/2000/svg" xmlns:xlink="http://www.w3.org/1999/xlink"><defs><linearGradient x1="50%" y1="0%" x2="50%" y2="100%" id="svgo-inline-loader-c"><stop stop-color="#FFE4AB" offset="0%"/><stop stop-color="#FFC573" offset="100%"/></linearGradient><filter x="-12.5%" y="-6.2%" width="125%" height="125%" filterUnits="objectBoundingBox" id="svgo-inline-loader-a"><feOffset dy="1" in="SourceAlpha" result="shadowOffsetOuter1"/><feGaussianBlur stdDeviation=".5" in="shadowOffsetOuter1" result="shadowBlurOuter1"/><feColorMatrix values="0 0 0 0 0 0 0 0 0 0 0 0 0 0 0 0 0 0 0.20074847 0" in="shadowBlurOuter1"/></filter><path d="M5.878 7.66V18H3.996A1.993 1.993 0 012 16.01V9.65c0-1.1.894-1.99 1.996-1.99h1.882zm5.17-5.493c.868.42 1.44 1.478 1.44 2.892 0 .846-.105 1.713-.316 2.601H16a2 2 0 011.942 2.479L16.68 15.26A3.6 3.6 0 0113.184 18H7.333l.001-10.853c1.047-.762 1.658-2.096 1.834-4.038.087-.964 1.005-1.364 1.88-.942z" id="svgo-inline-loader-b"/></defs><g transform="translate(-1 -2)" fill-rule="nonzero" fill="none"><use fill="#000" filter="url(#svgo-inline-loader-a)" xlink:href="#svgo-inline-loader-b"/><use fill="url(#svgo-inline-loader-c)" xlink:href="#svgo-inline-loader-b"/></g></svg>