<svg xmlns="http://www.w3.org/2000/svg" width="475.082" height="475.082" viewBox="0 0 475.082 475.082"><path d="M473.371 433.11c-10.657-3.997-20.458-6.563-29.407-7.706-8.945-.767-15.516-2.95-19.701-6.567-2.475-1.529-5.808-6.95-9.996-16.279-7.806-15.604-13.989-29.786-18.555-42.537-7.427-20.181-13.617-35.789-18.565-46.829-10.845-25.311-19.982-47.678-27.401-67.092-4.001-10.466-15.797-38.731-35.405-84.796L255.813 24.265l-3.142-5.996h-36.543l-79.94 206.704-67.665 175.874c-5.33 9.896-9.9 16.372-13.706 19.417-3.996 2.848-14.466 5.805-31.405 8.843-11.042 2.102-18.654 3.812-22.841 5.141L0 456.812h5.996c16.37 0 32.264-1.334 47.679-3.997l13.706-2.279c53.868 3.806 87.082 5.708 99.642 5.708.381-1.902.571-4.476.571-7.706 0-5.715-.094-11.231-.287-16.563-3.996-.568-7.851-1.143-11.561-1.711-3.711-.575-6.567-1.047-8.565-1.431-1.997-.373-3.284-.568-3.855-.568-14.657-2.094-24.46-5.14-29.407-9.134-3.236-2.282-4.854-6.375-4.854-12.278 0-3.806 2.19-11.796 6.567-23.982 14.277-39.776 24.172-65.856 29.692-78.224l128.483.568 26.269 65.096 13.411 32.541c1.144 3.241 1.711 6.283 1.711 9.138s-1.14 5.428-3.426 7.707c-2.285 1.905-8.753 4.093-19.417 6.563l-37.404 7.994c-.763 6.283-1.136 13.702-1.136 22.271l16.56-.575 57.103-3.138c10.656-.38 23.51-.575 38.547-.575 18.264 0 36.251.763 53.957 2.282 21.313 1.523 39.588 2.283 54.819 2.283.192-2.283.281-4.754.281-7.423 0-3.422-.569-8.842-1.711-16.269zM251.245 270.941c-2.666 0-7.662-.052-14.989-.144-7.327-.089-18.649-.233-33.973-.425-15.321-.195-29.93-.383-43.824-.574l48.535-128.477c7.424 15.037 16.178 35.117 26.264 60.242 11.425 27.79 20.179 50.727 26.273 68.809l-8.286.569z"/></svg>