<svg width="16" height="16" viewBox="0 0 16 16" xmlns="http://www.w3.org/2000/svg"><path d="M5.4 11.652a.878.878 0 001.757 0V6.46a1 1 0 00-.879-.99c-.49.082-.856.495-.878.99v5.192zm3.514 0c0 .485.393.877.879.877a.826.826 0 00.878-.877V6.46a.983.983 0 00-.878-1c-.494.083-.86.501-.879 1v5.192zm5.324-7.139H13.21v8.946a1.43 1.43 0 01-1.317 1.535H4.354a1.458 1.458 0 01-1.59-1.544V4.513h-.975a.877.877 0 01-.782-.877.78.78 0 01.672-.876H5.4v-.948a.702.702 0 01.782-.807h3.61a.703.703 0 01.783.781v.974h3.61a.782.782 0 01.809.876.877.877 0 01-.756.877z" fill="#FFF" fill-rule="evenodd"/></svg>