<svg width="16" height="16" viewBox="0 0 16 16" xmlns="http://www.w3.org/2000/svg"><path d="M14.893 7.33a.533.533 0 00-.494.735v1.38a3.21 3.21 0 01-3.217 3.203H3.206l.682-.618a.509.509 0 00.22-.386c.01-.29-.238-.536-.559-.547a.603.603 0 00-.444.174L1.53 12.688l-.602.546 2.176 1.917a.617.617 0 00.445.217c.32.011.59-.216.603-.507a.508.508 0 00-.258-.448l-.756-.69.003-.05h7.998c2.369 0 4.29-1.912 4.29-4.27V8.036c-.016-.055 0-.113 0-.175 0-.293-.24-.53-.536-.53zM1.53 8.007v-1.38a3.21 3.21 0 013.217-3.203h8.458l-.717.666a.587.587 0 00-.237.473.556.556 0 00.587.52.561.561 0 00.427-.228l1.134-1.044.987-.917-2.11-2.021A.613.613 0 0012.838.7a.552.552 0 00-.543.562c.007.163.091.3.213.396l.673.643.005.098H4.79C2.42 2.399.5 4.31.5 6.669v1.367c.016.055 0 .113 0 .175 0 .293.24.53.535.53a.533.533 0 00.495-.734z" fill="#757575" stroke="#757575" stroke-width=".2" fill-rule="evenodd"/></svg>