<svg width="16" height="16" viewBox="0 0 16 16" xmlns="http://www.w3.org/2000/svg"><path d="M8.447 6.984a.576.576 0 00.81-.018l.003.003 1.812-1.89a4.18 4.18 0 012.386-1.142l-.747.72a.532.532 0 00-.216.4.556.556 0 00.545.567.573.573 0 00.434-.18l.006.005L15.6 3.41l-2.125-1.985-.006.005s0 0 0 0h0a.565.565 0 00-.43-.23.56.56 0 00-.588.525.533.533 0 00.252.464l-.014.014.696.65a5.329 5.329 0 00-3.114 1.463l-1.84 1.917.004.003a.525.525 0 00-.153.365c0 .144.06.282.165.383h0zm-1.67 1.819a.575.575 0 00-.81.016l-.002-.002-1.914 1.986c-.771.7-1.792 1.09-2.853 1.088v.006c-.012 0-.022-.006-.034-.006a.553.553 0 00-.564.542c0 .3.252.542.564.542.012 0 .022-.006.034-.006v.006a5.396 5.396 0 003.652-1.41l1.941-2.01-.003-.003c.098-.099.153-.23.154-.366a.532.532 0 00-.165-.383h0zm6.697 1.6a.57.57 0 00-.434-.181.555.555 0 00-.546.567.534.534 0 00.215.399l.675.65a4.225 4.225 0 01-1.993-.85L5.174 4.544a5.38 5.38 0 00-3.976-1.733.553.553 0 00-.563.542c0 .3.252.542.563.542H1.2c1.198 0 2.337.497 3.138 1.375l6.207 6.44.119.104a5.401 5.401 0 002.778 1.125l-.753.703.015.013a.532.532 0 00-.252.464.56.56 0 00.589.525.563.563 0 00.429-.23l.006.006 2.125-1.986-2.12-2.04-.006.007z" fill="#757575" stroke="#757575" stroke-width=".2" fill-rule="evenodd"/></svg>