<svg viewBox="0 0 32 32"><path class="st0" d="M25.3 10H6.7c-.9 0-1.7.8-1.7 1.8v8.3c0 1 .8 1.8 1.7 1.8h18.6c.9 0 1.7-.8 1.7-1.8v-8.3c0-1-.8-1.8-1.7-1.8zm-13.8 9.5l-.8-2.2h-3l-.8 2.2h-1l2.7-7.2h1l2.9 7.2h-1zm5.9 0h-.8v-.8c-.4.6-1 .9-1.6.9-.3 0-.6-.1-.9-.2s-.5-.3-.6-.4-.2-.4-.3-.7c0-.2-.1-.4-.1-.8v-3.2h.9v2.9c0 .5 0 .8.1.9.1.2.2.4.4.5s.4.2.7.2.5-.1.7-.2.4-.3.5-.6.1-.6.1-1v-2.8h.9v5.3zm2.8.1c-.3 0-.6-.1-.7-.2s-.3-.2-.4-.4-.1-.5-.1-1v-3h-.6v-.7h.6V13l.9-.5v1.8h.9v.7h-.9v3.5c0 .1.1.1.2.2s.2.1.3.1h.4l.1.8h-.7zm5.6-1.2c-.2.4-.5.7-.9.9s-.8.3-1.3.3c-.7 0-1.3-.2-1.8-.7s-.7-1.1-.7-2c0-1 .3-1.7.8-2.1.4-.4 1-.6 1.6-.6.7 0 1.3.2 1.7.7s.7 1.1.7 1.9c.2.7.1 1.2-.1 1.6z"/><path class="st0" d="M23.7 14.9c-.4 0-.8.2-1.1.5s-.4.8-.4 1.5.1 1.2.4 1.5.7.5 1.1.5c.4 0 .8-.2 1.1-.5s.4-.8.4-1.5c0-.6-.1-1.1-.4-1.5s-.7-.5-1.1-.5zM9.1 13.1c-.1.5-.2.9-.4 1.4L8 16.6h2.4l-.7-2c-.3-.6-.5-1.1-.6-1.5z"/></svg>