<svg viewBox="0 0 32 32"><path class="st0" d="M8.6 12.6c-.1.5-.2.9-.4 1.4l-.8 2.1h2.4l-.7-2c-.2-.6-.4-1.1-.5-1.5zM23.5 14.5c-2.2 0-4 1.8-4 4s1.8 4 4 4 4-1.8 4-4-1.8-4-4-4zm0 7c-1.7 0-3-1.3-3-3 0-.6.2-1.2.6-1.7l4.2 4.2c-.6.3-1.2.5-1.8.5zm2.4-1.3L21.7 16c.5-.3 1.1-.6 1.7-.6 1.7 0 3 1.3 3 3 .1.7-.1 1.3-.5 1.8z"/><path class="st0" d="M18.5 18.4c0-.2-.1-.5-.1-.9v-3h-.6v-.7h.6v-1.3l.9-.5v1.8h.9v.7h-.9v1.2c.9-1.4 2.4-2.2 4.2-2.2 1.1 0 2.2.4 3 1v-3.2c0-1-.8-1.8-1.7-1.8H6.2c-.9 0-1.7.8-1.7 1.8v8.3c0 1 .8 1.8 1.7 1.8h13.3c-.6-.8-1-1.9-1-3zM11 19l-.8-2.2h-3L6.4 19h-1l2.7-7.2h1L12 19h-1zm5.9 0h-.8v-.8c-.4.6-1 .9-1.6.9-.3 0-.6-.1-.9-.2s-.5-.3-.6-.4-.2-.4-.3-.7c0-.2-.1-.4-.1-.8v-3.2h.9v2.9c0 .5 0 .8.1.9.1.2.2.4.4.5s.4.2.7.2.5-.1.7-.2.4-.3.5-.6.1-.6.1-1v-2.8h.9V19z"/></svg>