<svg width="46" height="16" viewBox="0 0 46 16" fill="none" xmlns="http://www.w3.org/2000/svg"><rect width="46" height="16" rx="8" fill="#FB7299"/><path d="M5.732 5.352v.84h4.524c-.624 2.952-2.208 5.064-4.764 6.324l.54.72c2.556-1.332 4.212-3.456 4.956-6.372.9 2.712 2.556 4.8 4.968 6.288l.54-.696c-2.46-1.464-4.116-3.552-4.956-6.264h4.728v-.84h-4.98c.096-.744.156-1.524.156-2.364v-.78h-.888v.972c-.012.756-.06 1.476-.156 2.172H5.732zm16.956-3.156c-1.416 1.62-3.18 2.964-5.292 4.044l.456.828c2.136-1.152 3.852-2.52 5.148-4.104a16.799 16.799 0 005.1 4.092l.468-.828c-1.98-.984-3.732-2.328-5.256-4.032h-.624zM20.072 5.88v.816h5.892V5.88h-5.892zm-1.884 2.412v.84H21.2a14.747 14.747 0 01-1.932 2.796c-.096.096-.24.168-.456.228l.24.756c2.868-.168 5.232-.408 7.104-.708.24.336.456.66.66.984l.72-.504c-.588-.9-1.428-1.956-2.52-3.18l-.672.432c.492.552.936 1.104 1.344 1.632-1.776.24-3.636.408-5.592.528a12.4 12.4 0 002.088-2.964h5.652v-.84h-9.648zm20.856-1.74h-8.076v4.62h.852V7.344h6.372v3.684h.852V6.552zM31.688 2.64v3.012h6.636V2.64h-6.636zm5.796 2.256h-4.956V3.408h4.956v1.488zm-2.808 3.228c-.096 1.476-.432 2.52-.984 3.132-.636.66-1.932 1.044-3.876 1.164l.336.78c2.232-.204 3.66-.684 4.284-1.428.576-.624.948-1.812 1.116-3.576l-.876-.072zm1.188 2.784l-.432.648c1.452.408 2.868.96 4.248 1.68l.468-.72a26.736 26.736 0 00-4.284-1.608z" fill="#fff"/></svg>