<svg width="12" height="12" viewBox="0 0 12 12" fill="none" xmlns="http://www.w3.org/2000/svg"><path d="M1.95 1.2c.331 0 .6.137.6.468s-.269.54-.6.54H1.8c-.331 0-.76.46-.76.792v7.2c0 .331.429.84.76.84h8.4c.331 0 .812-.509.812-.84V3c0-.331-.48-.791-.812-.791h-.15c-.331 0-.6-.21-.6-.541 0-.331.269-.468.6-.468h.15A1.8 1.8 0 0112 3v7.2a1.8 1.8 0 01-1.8 1.8H1.8A1.8 1.8 0 010 10.2V3a1.8 1.8 0 011.8-1.8h.15zm3.276 7.65l-.032-.003a.604.604 0 01-.286-.103L4.9 8.738a.552.552 0 01-.074-.063l.032.03a.612.612 0 01-.022-.02l-.01-.01-2.1-2.1a.6.6 0 01.848-.85l1.72 1.72 3.331-2.663a.6.6 0 11.75.937l-3.75 3-.018.013a.615.615 0 01-.014.01l.032-.023a.606.606 0 01-.25.118l-.005.001a.54.54 0 01-.094.011h-.05zM3.6 0a.6.6 0 01.6.6v2.1a.6.6 0 11-1.2 0V.6a.6.6 0 01.6-.6zm4.8 0a.6.6 0 01.6.6v2.1a.6.6 0 11-1.2 0V.6a.6.6 0 01.6-.6zM6.6 1.214c.331 0 .558.2.558.486s-.227.485-.558.485H5.4c-.331 0-.563-.154-.563-.485 0-.332.232-.486.563-.486h1.2z" fill="#fff"/></svg>