<svg xmlns="http://www.w3.org/2000/svg" viewBox="0 0 28 28"><path d="M23 15c1.487 0 2.866.464 4 1.255V7a4 4 0 00-4-4H5a4 4 0 00-4 4v14a4 4 0 004 4h11.674A7 7 0 0123 15zM7.849 11.669l.447-.828.492.782.894.184-.536.736.134.966-.85-.321-.804.414.045-.967L7 11.946l.849-.277zm3.352 7.101l-1.43-.506L8.43 19v-1.565L7.357 16.33l1.43-.506.67-1.381.894 1.289 1.475.23-.894 1.289.269 1.519zm2.453-5.971l-2.145-1.933 2.637-1.151L15.263 7l1.877 2.255 2.86.23-1.52 2.531.67 2.854-2.816-.69-2.458 1.565-.222-2.946z"/><path d="M26.536 18.464a5 5 0 00-7.071 0 5 5 0 000 7.071 5 5 0 107.071-7.071zm-5.657 5.657a3 3 0 01-.586-3.415l4.001 4.001a3 3 0 01-3.415-.586zm4.829-.827l-4.001-4.001a3.002 3.002 0 014.001 4.001z"/></svg>