<svg width="19" height="17" viewBox="0 0 19 17" xmlns="http://www.w3.org/2000/svg" xmlns:xlink="http://www.w3.org/1999/xlink"><defs><filter x="-11.6%" y="-7%" width="123.3%" height="127.9%" filterUnits="objectBoundingBox" id="svgo-inline-loader-a"><feOffset dy="1" in="SourceAlpha" result="shadowOffsetOuter1"/><feGaussianBlur stdDeviation=".5" in="shadowOffsetOuter1" result="shadowBlurOuter1"/><feColorMatrix values="0 0 0 0 0 0 0 0 0 0 0 0 0 0 0 0 0 0 0.20074847 0" in="shadowBlurOuter1"/></filter><path d="M75.6 9l.081.005a2.53 2.53 0 012.076 1.254l6.036 9.519c.254.387.395.832.407 1.323 0 1.282-1.083 2.232-2.542 2.232H69.542c-1.46 0-2.542-.95-2.542-2.267.01-.453.149-.894.4-1.276l6.043-9.531a2.53 2.53 0 012.076-1.254L75.6 9zm.003 10.73a.968.968 0 00-.98.956c-.002.53.434.96.974.961a.97.97 0 00.98-.955.968.968 0 00-.974-.961zm-.003-7.664a.975.975 0 00-.977.973c.11 2.565.17 4.031.183 4.398.02.551.458.76.794.76s.764-.216.786-.76c.014-.362.078-1.828.191-4.399a.975.975 0 00-.977-.972z" id="svgo-inline-loader-b"/></defs><g transform="translate(-66 -9)" fill-rule="nonzero" fill="none"><use fill="#000" filter="url(#svgo-inline-loader-a)" xlink:href="#svgo-inline-loader-b"/><use fill="#FFF" xlink:href="#svgo-inline-loader-b"/></g></svg>