<svg width="58" height="20" viewBox="0 0 58 20" xmlns="http://www.w3.org/2000/svg"><path fill-rule="evenodd" clip-rule="evenodd" d="M.222 15.539h1.655c3.097 0 5.607-2.484 5.607-5.547 0-3.064-2.51-5.547-5.607-5.547H.222v11.094zM16.177 4.445h-1.654c-3.098 0-5.608 2.483-5.608 5.547 0 3.063 2.51 5.547 5.608 5.547h1.654V4.445zm7.448 0h-4.05v11.094h4.05c3.097 0 5.608-2.484 5.608-5.547 0-3.064-2.511-5.547-5.608-5.547zm0 9.411h-2.351v-7.73h2.35c2.128.042 3.83 1.76 3.83 3.865 0 2.105-1.702 3.823-3.83 3.865zm6.469-2.15c0-2.124 1.74-3.845 3.887-3.845 2.144.004 3.882 1.723 3.886 3.844 0 2.123-1.74 3.845-3.886 3.845-2.147 0-3.887-1.722-3.887-3.845zm1.55-.009c0 1.277 1.046 2.312 2.337 2.312 1.288-.005 2.332-1.037 2.336-2.312 0-1.276-1.046-2.31-2.336-2.31-1.29 0-2.337 1.034-2.337 2.31zm9.023-7.251h-1.7v11.105h1.7V4.446zm3.13 4.108a3.898 3.898 0 012.224-.692 3.882 3.882 0 013.689 2.631 3.82 3.82 0 01-1.363 4.292 3.92 3.92 0 01-4.548.071v.695h-1.702V4.445h1.7v4.11zm-.113 3.144c.004 1.274 1.048 2.307 2.337 2.31 1.193 0 2.195-.89 2.322-2.063a2.314 2.314 0 00-1.825-2.506 2.34 2.34 0 00-2.714 1.527 2.33 2.33 0 00-.12.732zm10.238 1.097l2.215-4.931H58l-1.283 2.835c-1.306 2.886-3.12 6.892-3.12 6.899a2.214 2.214 0 01-2.903 1.104l-.594-.26.21-.462.476-1.056.245.108c.22.096.47.1.694.014a.904.904 0 00.502-.476v-.013l.68-1.52.024-.048.062-.136-3.143-6.99h1.858l2.214 4.932z"/></svg>