<svg width="22" height="22" viewBox="0 0 22 22" xmlns="http://www.w3.org/2000/svg"><g fill="none" fill-rule="evenodd"><path d="M3.603 10.918C4.34 9.8 5.175 9.332 5.32 8.103c.145-1.23-2.257-1.727-2.356-2.157-.066-.287.188-.506.763-.658-.304-.18-.419-.329-.345-.444.577-.9 1.698-1.076 1.938-1.27.241-.193.35-1.18 1.128-1.91.607-.568 1.812-.81 1.966-.845.17-.04.35-.071.533-.096.887-.159 2.838.197 4.093 1.477s1.552 4.05 2.081 5.603c.53 1.553 1.456 2.986 2.29 3.994 1.369 1.651 1.683 2.123 3.248 3.169.77.515.693.94.662 1.284-.032.344-.456.68-.662.938.154.23.478.31.547.61.069.298-.353 1.076-.807 1.237-.05.018-.318.11-.75.21-.913.21-2.397.816-4.528.416a9.464 9.464 0 01-3.244 1.434c-1.168.27-2.785.242-3.774.186-2.09-.117-3.165-1.048-3.187-1.059l-.03-.015c-.11-.005-.42-.126-.519-.134l-.055-.005c-.276.105-.413.126-.684.243a1.387 1.387 0 01-.231.077 1.203 1.203 0 01-.591-.011c-.293-.082-.543-.234-.539-.486.005-.252.127-.478.101-.59-.026-.111-.972-.546-.525-1.247.204-.32.823-.35.92-.415.123-.084-.616.03-1.136-.251-.52-.282-.813-.982-.463-1.312.351-.33.715-.01.772-.315.047-.247.035-.666.377-.795.341-.129.655-.008.675-.217.034-.357.109-.468.086-.829-.066-1.052.084-2.322.53-3.002z" fill="#FEFEFE"/><path d="M9.033 1.768c-.942.12-1.582.404-1.953.825-.372.422-.307.352-.779 1.2-.128.231-1.116.628-1.614.853-.158.071-.096.25.008.289.427.16.742.331.852.4l.04.026c.066.044.049.048-.075.077l-1.173.27c-.103.024-.11.143.132.268.24.125.626.264.89.394.47.23.758.533.842.666.273.43.235.766.154 1.147-.246 1.16-.988 2.028-1.615 3.003a8.81 8.81 0 00-.317.763c-.473 1.3-.249 3.136.271 4.527-.199.14-.3.204-.455.407l-.01-.008a4.513 4.513 0 01-.308-.286c.153-.311.157-.5.168-.846.006-.151-.112-.267-.27-.277-.15-.01-.296.12-.3.262-.003.06-.012.12-.022.178a1.826 1.826 0 01-.053.182 5.577 5.577 0 00-.196-.42c-.07-.134-.249-.169-.386-.104a.272.272 0 00-.12.368c.075.145.145.293.208.444l.021.053.009.021c.006.016-.103.026-.162.013a6.805 6.805 0 01-.574-.154c-.15-.047-.308.048-.36.183-.056.141.042.292.183.336.407.128 1.29.205 1.303.204.11.111.747.645.747.645s.526.663 1.591.487c.033.03.066.055.099.081-.174.167-.367.196-.496.408a7.74 7.74 0 01-.706-.046l-.025-.004a2.6 2.6 0 01-.151-.04s-.256-.3-.425-.517c-.042-.055-.126-.078-.195-.083a.307.307 0 00-.21.077.278.278 0 00-.091.187.266.266 0 00.067.184c.035.047.067.096.101.143-.234-.073-.468-.15-.7-.23-.148-.053-.308.05-.36.182-.057.144.044.287.183.336.264.093.531.178.8.26-.13.053-.26.102-.388.157-.147.064-.183.246-.121.368.03.06.1.11.165.128.076.021.15.007.221-.023.31-.135.997-.414 1.019-.44.103.016.207.027.308.036.176.016.53.027.53.027s.402.32.956.498c.555.179 2.086 1.006 5.396.242a8.58 8.58 0 003.261-1.537c2.13.488 3.394 0 4.322-.214.387-.09.619-.17.653-.182a.426.426 0 00.284-.333.385.385 0 00-.176-.383l-.715-.314c.423-.205.846-.45.878-.49a.389.389 0 00-.078-.57c-1.512-1.054-2.396-2.083-3.824-3.82-1.004-1.222-1.642-2.668-2.24-4.44-.39-1.153-.705-2.78-1.209-3.769-1.377-2.704-3.712-2.294-3.81-2.275zM7.422 4.007c.242-.431.696-.876 1.707-1 .084-.014 1.664-.102 2.625 1.843.423.855 1.106 2.937 1.462 4.008.104.312.15.401.258.714-.002.01-.007.02-.007.031-.001.083-.059.031-.082.07a.187.187 0 01-.028-.013c-.346-.198-.743-.406-.918-.815-.036-.086-.114-.223-.295-.181-.18.041-.195.22-.18.311.063.394.018.823-.003 1.027-.215-.09-.538-.305-.729-.796-.032-.083-.106-.213-.253-.18-.089.013-.15.122-.148.21.002.16-.046.407-.117.691-.035.138-.281.598-.244.76.037.16.205.23.315.211.1-.017.133-.086.244-.275.11-.189.163-.334.202-.504.318.394.742.636.982.64a.243.243 0 00.187-.084c.086-.098.204-.318.184-.676.22.284.86.774 1.015.745a.285.285 0 00.09-.034c.024-.014.063-.145.082-.163.154.425 1.029 1.806 1.459 2.352 1.169 1.484 2.076 2.34 3.294 3.294-.134.065-.405.23-.701.338-.236.086-.25.123-.257.175-.012.089.028.226.202.38.175.155.447.382.447.382-.669.124-1.569-.063-2.825-.375-.625-.155-1.147-.234-1.818-.529-.574-.252-1.294-.524-1.743-.767-1.667-.9-2.506-1.768-2.777-2.802-.267-1.021-.42-1.581.593-2.924.122-.163.083-.532-.08-.654-.164-.12-.478-.136-.6.027-1.157 1.534-1.364 2.56-1.037 3.81.526 2.008 2.886 3.271 4.885 4.148.189.083.86.341 1.047.409-.542.363-1.351.925-2.23 1.177-.975.281-2.081.32-2.638.339-1.32.042-1.77-.234-2.38-.655-.057-.04-.081-.104-.034-.15.353-.355.8-.726 1.32-.931a10.036 10.036 0 011.385-.445c.203-.004.348-.255.347-.457-.002-.203-.221-.451-.425-.45-.055.002-.681-.04-1.577.268-.424.146-.698.297-1.05.503-.113-.033-.477-.274-.707-.674-.629-1.097-.457-3.188-.044-4.415.36-1.067.696-1.407 1.032-1.836.242-.31.338-.594.473-.991.242-.711.035-1.593-.137-2.183a5.362 5.362 0 01-.14-.609c-.137-.848.087-1.8.367-2.295zM9.456 3.9a1.502 1.502 0 00-1.124 1.799c.186.806.993 1.31 1.799 1.124a1.502 1.502 0 001.124-1.8 1.502 1.502 0 00-1.8-1.123zm.177.55a.961.961 0 011.151.72.961.961 0 01-.719 1.15.961.961 0 01-1.151-.719.961.961 0 01.719-1.151zm.528.332a.673.673 0 00-.875.339.642.642 0 00.337.856c.316.134.68.005.845-.286a.371.371 0 01-.321.015.357.357 0 01-.188-.476.374.374 0 01.487-.189l.02.012a.645.645 0 00-.305-.271z" fill="#4A4A4A"/></g></svg>