<svg width="22" height="22" viewBox="0 0 22 22" xmlns="http://www.w3.org/2000/svg" xmlns:xlink="http://www.w3.org/1999/xlink"><defs><filter x="-31.2%" y="-25%" width="162.5%" height="162.5%" filterUnits="objectBoundingBox" id="svgo-inline-loader-a"><feOffset dy="1" in="SourceAlpha" result="shadowOffsetOuter1"/><feGaussianBlur stdDeviation="1.5" in="shadowOffsetOuter1" result="shadowBlurOuter1"/><feColorMatrix values="0 0 0 0 0 0 0 0 0 0 0 0 0 0 0 0 0 0 0.24 0" in="shadowBlurOuter1"/></filter><path id="svgo-inline-loader-b" d="M6 16l-3 3V5a2 2 0 012-2h12a2 2 0 012 2v9a2 2 0 01-2 2H6zm4-4v2h2v-2h-2zm2-.998c0-.34.149-.523.636-.925.022-.018.296-.24.379-.31a5.81 5.81 0 00.173-.152C13.705 9.145 14 8.656 14 8a3 3 0 00-5.698-1.314c-.082.17-.153.41-.213.72A.5.5 0 008.581 8h1.023a.5.5 0 00.476-.348.851.851 0 01.114-.244A.999.999 0 0112 8c0 1.237-2 1.16-2 3h2z"/></defs><g fill="none" fill-rule="evenodd"><use fill="#000" filter="url(#svgo-inline-loader-a)" xlink:href="#svgo-inline-loader-b"/><use xlink:href="#svgo-inline-loader-b"/></g></svg>