<svg xmlns="http://www.w3.org/2000/svg" viewBox="0 0 124 38"><path d="M65.5 30.8h-.8c-.5-.1-1 0-1.5-.1-.3 0-.3 0-.3-.3-.1-.9-.2-1.9-.3-2.8-.1-.8-.1-1.7-.2-2.5s-.2-1.5-.2-2.3c-.1-.7-.2-1.4-.2-2.1l-.3-2.7-.3-2.4c-.2-1.2-.3-2.5-.5-3.7-.2-1.3-.4-2.6-.7-3.9 0-.2 0-.2.2-.3 1-.2 1.9-.3 2.9-.3h.3c.2 0 .3.1.3.3 0 .7.1 1.3.1 2l.3 3.3c.1.7.1 1.4.2 2.1.1 1.1.2 2.3.3 3.4.1.7.1 1.4.2 2.1.1 1 .2 2 .3 3.1.1.6.1 1.3.2 1.9.1 1 .2 1.9.3 2.9-.4.7-.3 1.5-.3 2.3zM28.7 7.4h.6c.3 0 .3.1.3.3.1 1.2.1 2.4.2 3.6.1 1.3.2 2.6.3 3.8.1 1.2.2 2.3.3 3.5l.3 3.9c.1 1 .1 2 .2 3l.3 2.7c.1.8.1 1.6.2 2.4 0 .2 0 .3-.3.3-.7 0-1.4-.1-2.2-.1-.2 0-.2-.1-.2-.2-.1-.3 0-.7-.1-1-.1-.9-.2-1.8-.2-2.7l-.3-2.4c-.1-.7-.2-1.5-.2-2.2-.1-.7-.2-1.5-.3-2.2-.1-.7-.2-1.3-.2-2-.1-1-.2-2-.4-2.9-.1-.9-.3-1.8-.4-2.7L26 8.9c-.1-.3-.1-.5-.2-.8 0-.1 0-.2.2-.2.4-.1.8-.1 1.3-.2.4-.3.9-.4 1.4-.3zm30.2 11.8c.8 0 .8 0 1 .7.2.9.3 1.8.4 2.7.1.9.2 1.9.3 2.8.1.8.2 1.5.2 2.3l.3 2.4c0 .5.1.9.1 1.4 0 .1 0 .2-.2.2-.3 0-.6.1-.8.1-.5.1-1 .1-1.5.2-.3 0-.3 0-.3-.2-.4-2.2-.9-4.5-1.3-6.7l-.9-4.5c0-.2-.1-.4-.1-.6 0-.1 0-.2.2-.2.8-.4 1.7-.6 2.6-.6zm-34.2 0c.9 0 .9 0 1 .8.2 1.2.4 2.4.5 3.6.1 1.2.3 2.3.4 3.5.1.8.2 1.6.2 2.4.1.6.1 1.1.2 1.7v.2c0 .3 0 .3-.3.3-.5.1-1.1.1-1.6.2-.2 0-.4 0-.6.1-.3 0-.3 0-.3-.2-.2-.9-.4-1.8-.5-2.7-.4-2.2-.9-4.3-1.3-6.5-.2-.9-.3-1.7-.5-2.6 0-.2 0-.2.2-.3.9-.3 1.8-.5 2.6-.5zm11.5 9.1V32c0 .2 0 .3-.2.2h-2.2c-.3 0-.3 0-.3-.3l-.3-2.7c-.1-.8-.2-1.7-.2-2.5-.1-.9-.2-1.7-.3-2.6-.1-.6-.1-1.2-.2-1.7-.1-.8-.1-1.5-.2-2.3 0-.3 0-.4.3-.4.8-.1 1.7-.1 2.5-.1.2 0 .4.1.6.1.3.1.3.1.3.4 0 .5.1 1 .1 1.6v1.7c.1 1.7.1 3.3.1 4.9zm34.1.1V32c0 .2-.1.2-.2.2h-2.3c-.3 0-.3 0-.3-.2l-.3-3.6-.3-3.3c-.1-1.1-.2-2.3-.3-3.4-.1-.6-.1-1.1-.1-1.7 0-.2 0-.3.3-.3.5 0 1-.1 1.5-.1s1 0 1.5.1c.4.1.4.1.5.5.1 1.3 0 2.6.1 3.9-.1 1.4-.1 2.8-.1 4.3zM58.1 12.9c.3 0 .5 0 .8.1.1 0 .2.1.2.3.1.7.1 1.5.2 2.2.1.6.1 1.2.2 1.8 0 .4 0 .4-.3.4s-.7 0-1 .1c-.2 0-.3 0-.3-.3-.1-1.1-.3-2.2-.4-3.3 0-.3-.1-.6-.1-.9 0-.2 0-.3.2-.3.1 0 .3 0 .5-.1zm-34.1 0h.7c.1 0 .2.1.2.2 0 .3.1.7.1 1 .1 1.1.2 2.1.3 3.2 0 .2 0 .2-.2.3-.4 0-.8.1-1.2.1-.2 0-.3 0-.3-.2l-.3-2.4c-.1-.6-.1-1.3-.2-1.9 0-.2 0-.2.2-.3.2 0 .4.1.7 0zm12 3v2c0 .3 0 .3-.3.3-.4 0-.7 0-1.1-.1-.2 0-.2 0-.2-.3 0-.8 0-1.6-.1-2.5 0-.6 0-1.1-.1-1.7 0-.3 0-.3.3-.3.4 0 .8 0 1.3.1.3 0 .3 0 .3.3-.1.8-.1 1.5-.1 2.2zm34.1 0v2c0 .3 0 .3-.3.3-.4 0-.8 0-1.1-.1-.2 0-.2-.1-.2-.3v-.1c0-1.3-.1-2.6-.1-3.9v-.2c0-.3 0-.3.3-.3.4 0 .7 0 1.1.1.5 0 .4.1.4.4-.1.8-.1 1.4-.1 2.1zM23 17.5c0 .4 0 .4-.4.5-.2.1-.5.1-.7.2-.2 0-.3 0-.3-.2-.3-1.4-.5-2.8-.8-4.1-.1-.3 0-.3.3-.4.4-.1.7-.1 1.1-.2.2 0 .3 0 .3.2.1.5.2 1 .2 1.5.1.8.2 1.6.3 2.3v.2zm32-4c.5-.1.9-.1 1.4-.2.2 0 .2.1.2.2.1.5.2 1.1.2 1.6l.3 2.4v.2c0 .1-.1.2-.2.2-.3.1-.6.1-1 .2-.2 0-.2 0-.2-.2-.1-.5-.2-1.1-.3-1.6-.2-.9-.3-1.8-.5-2.7.1 0 .1-.1.1-.1zm-21.3 3.1c0 .5 0 .9-.1 1.3 0 .1-.1.2-.2.2-.3 0-.6 0-.9.1-.2 0-.2 0-.2-.2-.1-.4-.1-.9-.1-1.3-.1-.7-.2-1.5-.2-2.4v-.6c0-.1 0-.2.2-.2.4 0 .8-.1 1.2-.1.2 0 .3 0 .3.3v.5c-.1.9 0 1.7 0 2.4zm34.1-.4v1.7c0 .3 0 .3-.3.3s-.6 0-.8.1c-.2 0-.2 0-.2-.2 0-.7-.1-1.5-.1-2.2 0-.6-.1-1.2-.1-1.8v-.2c0-.1 0-.2.2-.2.4 0 .8-.1 1.2-.1.2 0 .2 0 .3.3-.2.7-.2 1.5-.2 2.3zM12.3 31c.7-.3 4.1-2.9 4.3-3.3-1.6-.7-3.3-1.3-5.1-1.9.3 1.8.5 3.5.8 5.2zm9.6-4.8c.5.5.5 1.2.4 1.8-.2.7-.5 1.2-1 1.7-.8.8-1.7 1.4-2.7 1.9-1.7.9-3.5 1.5-5.4 1.8-1.3.2-2.7.4-4.1.5H6.9c-.3 0-.3-.1-.3-.3-.1-.9-.1-1.9-.2-2.8l-.3-3.3c-.1-.7-.2-1.5-.3-2.3-.1-.9-.2-1.8-.3-2.8-.1-.9-.2-1.7-.3-2.6-.1-.8-.2-1.8-.3-2.7-.1-.9-.3-1.8-.4-2.7-.2-1.5-.5-3-.7-4.5-.3-1.2-.5-2.5-.8-3.7 0-.1 0-.2.2-.2C4.6 5.4 6 4.9 7.4 4.3c.2-.2.5-.2.7-.3.2 0 .2 0 .2.2V11.1c0 1.5.1 3 .2 4.5.1 1.2.2 2.4.3 3.5.1 1.2.2 2.3.3 3.5 0 .2 0 .2.3.2.5-.1 1-.1 1.5-.1 1.6 0 3.2.2 4.7.6 1.4.3 2.7.7 3.9 1.3.6.3 1.2.6 1.8 1 .3.2.4.4.6.6zm28.8 1.7c.1-.1.1-.2 0-.2-.2-.1-.5-.2-.7-.3-1.3-.5-2.5-1-3.8-1.4-.1 0-.2-.1-.4 0 .2 1.7.5 3.4.7 5.1.1 0 .1 0 .2-.1 1.2-.8 2.4-1.7 3.5-2.6.1-.2.3-.3.5-.5zm5.1-2c.6.5.8 1.2.7 2-.1.7-.5 1.2-.9 1.7-.7.8-1.6 1.4-2.5 1.9-1.8 1-3.7 1.6-5.8 2-1.1.2-2.2.4-3.4.5-.6.1-1.3.1-2 .1h-.8c-.2 0-.3-.1-.3-.2-.1-.8-.1-1.6-.2-2.5-.1-.9-.2-1.7-.3-2.6-.1-.8-.1-1.6-.2-2.4-.1-.8-.2-1.5-.2-2.3-.1-.7-.2-1.4-.2-2.1-.1-.9-.2-1.7-.3-2.6l-.3-2.4c-.1-.9-.2-1.7-.4-2.6-.2-1.1-.4-2.2-.5-3.3-.3-1.6-.5-3.1-.9-4.7v-.2c-.1-.2 0-.2.1-.3 1.5-.6 2.9-1.2 4.4-1.8.1 0 .3-.1.5-.1s.2 0 .2.2c-.1 1.1 0 2.1-.1 3.2v3.3c0 1 0 2.1.1 3.1.1 1.4.2 2.8.3 4.1l.3 3c.1.5.1 1.1.2 1.6 0 .3.1.3.4.3.5-.1 1.1-.1 1.6-.1 1.9 0 3.7.3 5.5.8 1.2.3 2.4.8 3.5 1.4.5.3 1 .6 1.5 1zm60.6-12.4c1 .8 2.6 2.2 3.6 3.3l-1.1 1.2c-1-1-2.5-2.5-3.5-3.3l1-1.2zm-2.5-.4l.2 4.6.1 1.1 7.6-.9.2 1.7-7.6.9c.2 2.2.5 4 .9 5.5 1.6-1.5 2.9-3.2 4-5.1l1.4.9c-1.4 2.3-3 4.3-4.8 6 .3.9.7 1.7 1.1 2.4.7 1 1.2 1.3 1.7 1.3s.8-.4 1.2-1.7c.2-.8.4-2 .5-2.8l1.5.6c-.2 1.1-.4 2.1-.7 3.1-.5 1.8-1.4 2.7-2.6 2.7-1.2 0-2.1-.6-3.3-2.4-.4-.6-.7-1.2-1-2-1.5 1.2-3.2 2.3-5.1 3.3l-.9-1.5c2-1.1 3.8-2.2 5.4-3.5-.5-1.7-.9-3.9-1.1-6.6l-3.2.4-.2-1.7 3.2-.4c0-.5-.1-1-.1-1.5-.1-1.5-.2-4.5-.2-4.5h1.8zM103 18.9c.8 1.2 1.9 2.8 2.9 4.4.8-1.9 1.3-3.9 1.7-6.1h-6.1v-1.7h7.8v1.7c-.5 2.9-1.3 5.5-2.3 7.9 1 1.6 1.9 3.1 2.5 4.1l-1.4 1c-.5-.9-1.2-2.1-2-3.3-1.1 2.2-2.5 4.2-4.2 6.1l-1.2-1.5c1.7-1.9 3.2-4 4.3-6.4-1.2-1.9-2.5-3.9-3.4-5.3l1.4-.9zm-10.4 6.2v-1.5l2.3-2.2H90v-.9l-.3.4-1.5-.9c1.5-2.1 2.7-4.6 3.5-7l1.7.2c-.3.9-.6 1.7-.9 2.6h5.4v1.7h-6.1c-.4.8-.8 1.5-1.3 2.2h6.4v1.7L94.2 24v1.1h3.7v1.7h-3.7V31c0 1.9-.5 2.4-2.4 2.4h-2l-.3-1.7H91c1.4 0 1.6-.2 1.6-1.3v-3.5h-3.4v-1.7h3.4zm-7.3-8.4l-1.2-3.3 1.7-.4c.2.5 1 2.7 1.4 3.7h2.1v1.6h-4.4v3.1h3.8c0 .5-.3 8.6-.3 9.3-.2 1.8-.7 2.3-2.4 2.3h-1.7l-.3-1.7h1.7c1.1 0 1.2-.4 1.3-1.4 0-.7.3-6.1.3-6.9H85c-.2 5.2-1 7.6-3.3 10.7l-1.4-.8c2.5-3.4 2.9-5.7 3.1-11.1 0-.3 0-2.5.1-3.6h-1.4v-1.6h3.2zm-6.8-3c.9.7 2.6 2.1 3.5 2.8l-1 1.4c-.9-.7-2.7-2.2-3.5-2.8l1-1.4zm1.1 11l1.7.6c-.5 1.3-2.4 7-2.8 8.3l-1.7-.5c.5-1.4 2.4-7.1 2.8-8.4zm-1.9-6c1.1.8 2.8 2.1 3.9 3l-1.1 1.4c-1-.8-2.8-2.3-3.8-3.1l1-1.3z" opacity=".7" fill-rule="evenodd" clip-rule="evenodd" fill="#f0f0f0"/></svg>