<svg width="28" height="28" viewBox="0 0 28 28" xmlns="http://www.w3.org/2000/svg"><path d="M19.423 9.56c-1.37-.213-2.602-1.159-3.106-2.38l-1.82-3.832c-.205-.472-.836-.472-1.079.016l-1.743 3.83c-.623 1.258-1.769 2.16-3.098 2.366l-4.113.637c-.44.056-.633.64-.27 1.005l3.054 3.158c.93.937 1.348 2.283 1.142 3.633l-.71 4.448c-.087.5.433.86.89.614L12 21.17a4.017 4.017 0 014.053-.014l3.447 1.896a.604.604 0 00.899-.608l-.79-4.456c-.206-1.342.212-2.689 1.134-3.618l3.072-3.176c.354-.357.16-.94-.307-1l-4.085-.633z" stroke="#6D757A" stroke-width="2" fill="none" fill-rule="evenodd"/></svg>