<svg width="14" height="12" viewBox="0 0 14 12" fill="none" xmlns="http://www.w3.org/2000/svg"><path fill-rule="evenodd" clip-rule="evenodd" d="M7 12c-.1 0-.25-.05-.35-.1-.45-.35-4.3-3.35-5.1-4.5C.65 6.2.5 5.55.5 4.4.5 2 2.25 0 4.45 0 5.4 0 6.3.35 7 1c.7-.65 1.6-1 2.55-1 2.2 0 3.95 2 3.95 4.4 0 1.1-.15 1.75-1.05 3-.8 1.1-4.7 4.15-5.1 4.5-.1.05-.25.1-.35.1zM1.463 4.6c0 .6.148 1.3.898 2.35.6.8 3.239 2.82 4.639 3.97 1.4-1.15 4.037-3.17 4.637-3.97.75-1.05.863-1.8.863-2.35 0-1.827-1.177-3.6-2.998-3.6-.988 0-1.554.382-2.254.982-.147.1-.224.1-.248.1-.024 0-.132 0-.274-.1C5.976 1.382 5.45 1 4.6 1 2.706 1 1.463 2.7 1.463 4.6z" fill="#FEFEFE"/></svg>