<svg width="16" height="16" viewBox="0 0 16 16" xmlns="http://www.w3.org/2000/svg"><path d="M6.907.708a2 2 0 012.18.002l5.005 3.264A2 2 0 0115 5.649v4.668a2 2 0 01-.901 1.671l-5.002 3.29a2 2 0 01-2.198-.001L1.9 11.988A2 2 0 011 10.318V5.624a2 2 0 01.912-1.678zM8 3.786a.37.37 0 00-.322.195l-.963 2.08c-.054.082-.134.166-.214.166l-2.223.333c-.107 0-.214.11-.268.222-.027.111 0 .25.08.333l1.633 1.69c.054.084.108.167.08.25l-.374 2.33c-.027.14.026.25.134.334a.367.367 0 00.375.028l1.928-1.082c.053-.028.08-.028.134-.028.053 0 .107 0 .134.028l1.927 1.083a.367.367 0 00.376-.028c.107-.083.16-.194.133-.333l-.375-2.33c0-.084.027-.195.08-.25l1.635-1.691a.374.374 0 00.08-.333c-.027-.111-.134-.194-.268-.222l-2.223-.333c-.107-.028-.187-.084-.214-.167l-.964-2.08A.37.37 0 008 3.786z" fill="#FFF" fill-rule="evenodd"/></svg>