<svg width="99" height="23" viewBox="0 0 99 23" xmlns="http://www.w3.org/2000/svg"><g opacity=".9"><path d="M20.308 11.099l-.143-.029c-.031.105-.075.208-.092.316-.205 1.333-.448 2.655-.982 3.904-.274.641-.582 1.261-1.164 1.689-.589.433-1.168.395-1.63-.168a4.466 4.466 0 01-.698-1.141c-.418-1.047-.771-2.12-1.165-3.177-.505-1.357-.985-2.724-1.55-4.056-.347-.817-.865-1.542-1.66-2.02-.535-.32-1.526-.354-2.008.099.169.08.327.224.463.206.614-.083 1.023.224 1.31.692.3.489.58 1.003.777 1.541.566 1.553 1.072 3.129 1.628 4.686.42 1.173.877 2.338 1.717 3.29.565.638 1.247 1.008 2.143.828.804-.16 1.291-.703 1.655-1.375.75-1.386 1.025-2.917 1.285-4.448.047-.278.076-.558.114-.837zm-7.522 6.351c-.23-.08-.406-.202-.573-.189-.475.036-.855-.137-1.088-.516-.348-.564-.7-1.142-.929-1.76-.571-1.538-1.063-3.106-1.608-4.654-.393-1.116-.847-2.208-1.603-3.138-.404-.498-.882-.897-1.55-.987-1.053-.143-1.776.352-2.278 1.226-.934 1.628-1.196 3.448-1.464 5.265-.008.056.042.122.1.277.057-.174.09-.25.105-.33.182-.89.326-1.792.55-2.67.252-.985.59-1.949 1.304-2.713.729-.78 1.525-.749 2.104.14a9.26 9.26 0 01.914 1.856c.613 1.672 1.147 3.373 1.76 5.044.402 1.1.913 2.154 1.811 2.957.702.627 1.718.737 2.444.19v.002zm2.565.032c-.196-.098-.346-.24-.475-.223-.723.095-1.183-.306-1.438-.873-.535-1.19-.997-2.412-1.47-3.628-.57-1.469-1.092-2.958-1.691-4.414a4.131 4.131 0 00-1.408-1.8c-.67-.48-1.65-.506-2.207-.034.152.082.302.237.423.217.689-.114 1.116.257 1.41.783.337.602.646 1.227.882 1.875.594 1.625 1.117 3.276 1.71 4.9.375 1.028.847 2.015 1.628 2.813.736.752 1.749.925 2.636.384zM5.738 7.61c-.744.963-1.687 4.85-1.36 5.331.042-.177.088-.317.108-.46.221-1.551.554-3.07 1.27-4.48.052-.101-.01-.26-.018-.391zm10.5 8.75c.732-.912 1.69-4.812 1.342-5.337-.044.25-.082.442-.112.636-.227 1.472-.538 2.918-1.222 4.258-.06.118-.008.295-.008.444zm-9.145-5.247c-.097.591-.316 1.166-.207 1.782.123-.587.391-1.156.207-1.782zm8.118-.003l-.196-.034c-.071.585-.289 1.153-.19 1.758l.101.013.285-1.737z"/><path d="M20.308 11.099c-.037.279-.066.56-.113.837-.26 1.532-.535 3.062-1.285 4.448-.364.672-.851 1.213-1.655 1.375-.896.18-1.58-.19-2.143-.829-.84-.95-1.297-2.116-1.717-3.289-.556-1.557-1.062-3.132-1.629-4.686-.196-.538-.477-1.051-.777-1.541-.286-.468-.695-.775-1.31-.692-.136.018-.293-.127-.462-.206.483-.454 1.473-.42 2.008-.098.795.477 1.313 1.203 1.66 2.02.565 1.33 1.045 2.7 1.55 4.055.394 1.057.747 2.13 1.165 3.177.164.41.418.798.699 1.14.461.564 1.04.602 1.629.169.582-.427.89-1.048 1.164-1.689.534-1.248.777-2.571.982-3.904.017-.108.06-.211.092-.316l.142.029zM12.786 17.45c-.726.546-1.742.437-2.444-.19-.899-.803-1.409-1.858-1.812-2.957-.612-1.672-1.147-3.373-1.76-5.045a9.28 9.28 0 00-.913-1.855c-.579-.89-1.375-.92-2.104-.14-.714.764-1.051 1.728-1.304 2.712-.225.88-.369 1.78-.55 2.671-.016.08-.05.156-.105.33-.058-.156-.109-.221-.1-.278.267-1.818.529-3.638 1.463-5.266.503-.873 1.225-1.369 2.279-1.226.667.09 1.144.489 1.548.986.756.93 1.21 2.023 1.603 3.138.545 1.549 1.037 3.116 1.608 4.654.23.617.581 1.196.929 1.76.233.38.613.553 1.088.516.167-.013.343.11.573.19z"/><path d="M15.352 17.482c-.888.541-1.9.368-2.637-.384-.78-.798-1.253-1.784-1.627-2.812-.593-1.625-1.117-3.276-1.71-4.901a12.97 12.97 0 00-.883-1.875c-.294-.526-.72-.896-1.41-.783-.121.02-.27-.135-.423-.217.557-.473 1.538-.447 2.207.035a4.126 4.126 0 011.408 1.8c.6 1.455 1.121 2.944 1.692 4.413.472 1.216.934 2.438 1.47 3.628.255.567.714.968 1.438.873.128-.017.278.126.475.223zM5.738 7.61c.01.132.07.29.018.39-.716 1.412-1.049 2.93-1.27 4.481-.02.143-.066.283-.108.46-.327-.482.616-4.368 1.36-5.331zM16.238 16.361c0-.15-.052-.326.008-.444.685-1.34.996-2.786 1.222-4.258.03-.194.068-.386.112-.636.348.525-.61 4.426-1.342 5.338zM7.093 11.113c.184.626-.084 1.195-.207 1.782-.109-.616.11-1.192.207-1.782zM15.212 11.11l-.285 1.737-.101-.013c-.098-.606.118-1.174.19-1.76l.197.036h-.001zM31.27 17.987V7.022h-2.14v4.482H25.42V7.022h-2.14v10.965h2.14v-4.59h3.711v4.59h2.14zm4.414-9.394V6.96h-2.048v1.632h2.048zm-.015 9.394V9.964h-2.002v8.023h2.002zm6.766-3.465v-1.864h-4.743v1.864h4.743zm10.484 3.465l-2.448-4.728c1.062-.385 2.002-1.34 2.002-2.88 0-1.832-1.325-3.357-3.558-3.357H44.62v10.965h2.14v-4.374h1.54l2.14 4.374h2.48zm-2.587-7.608c0 .847-.616 1.448-1.555 1.448h-2.018V8.932h2.018c.939 0 1.555.6 1.555 1.447zm10.8 4.22v-.893c0-2.202-1.263-3.835-3.496-3.835-2.079 0-3.496 1.479-3.496 4.096 0 3.25 1.818 4.112 3.712 4.112 1.447 0 2.233-.446 3.049-1.262l-1.217-1.186c-.508.508-.939.754-1.817.754-1.124 0-1.755-.754-1.755-1.786h5.02zm-1.971-1.37h-3.05c.016-.355.062-.57.185-.863.216-.477.663-.832 1.34-.832.678 0 1.124.354 1.34.832.123.293.17.508.185.862zm9.853 2.232c0-1.355-.8-2.202-2.386-2.356l-1.263-.123c-.709-.062-.832-.4-.832-.693 0-.4.339-.77 1.14-.77.693 0 1.401.123 1.863.539l1.232-1.248c-.77-.723-1.817-.939-3.064-.939-1.633 0-3.096.893-3.096 2.556 0 1.479.893 2.11 2.34 2.249l1.264.123c.631.062.847.339.847.74 0 .6-.724.83-1.417.83-.616 0-1.478-.091-2.14-.754l-1.31 1.31c1.017 1.016 2.156 1.154 3.42 1.154 1.893 0 3.403-.847 3.403-2.618zM71.827 5.677v1.479h4.002v.84a25.297 25.297 0 01-.174 2.19h-4.756v1.465h4.495c-.189.754-.42 1.45-.71 2.088-.697 1.363-2.03 2.508-4.031 3.422l.855 1.348c2.001-.84 3.451-2.059 4.35-3.654.478-.899.841-1.972 1.102-3.204h.783v4.8c0 1.203.566 1.812 1.697 1.812h2.305c.609 0 1.073-.145 1.363-.42.319-.29.551-1.219.681-2.785l-1.42-.478c-.058 1.102-.16 1.754-.32 1.957a.676.676 0 01-.594.32h-1.552c-.434 0-.652-.247-.652-.711V11.65h4.335v-1.465h-6.38c.087-.681.131-1.406.16-2.19v-.84h5.075v-1.48H71.827zm25.999 4.147H90.43v5.756h1.478v-4.422h4.438v4.408h1.479V9.824zm-6.931-4.292v3.64h6.51v-3.64h-6.51zm5.031 2.392h-3.552V6.808h3.552v1.116zm-2.61 3.857v1.48c-.058 1.014-.334 1.855-.826 2.508-.522.609-1.494 1.102-2.944 1.508l.812 1.276c1.522-.435 2.624-1.044 3.32-1.827.697-.87 1.073-2.03 1.146-3.466v-1.479h-1.508zm-6.337 6.554c1.001 0 1.508-.507 1.508-1.493v-3.973c.494-.218.972-.45 1.45-.696v-1.537c-.478.26-.956.493-1.45.725V9.04h1.567V7.576h-1.567v-2.48h-1.493v2.48H85.21v1.465h1.784v2.914c-.696.232-1.392.435-2.088.595l.391 1.537c.566-.189 1.132-.392 1.697-.595v2.958c0 .348-.189.537-.537.537-.376 0-.768-.03-1.174-.087l.334 1.435h1.362zm8.164-2.972l-.74 1.116c1.088.522 2.146 1.233 3.19 2.132l.856-1.305c-1-.754-2.102-1.407-3.306-1.943z"/></g></svg>