<svg width="22" height="22" viewBox="0 0 22 22" xmlns="http://www.w3.org/2000/svg"><g fill="none" fill-rule="evenodd"><path d="M7.554 3.094l-1.43.438-.149.052c-1.445.562-1.509 3.08-.227 4.023l.878.647v.083l-.464.955-.31-.1a2 2 0 00-2.614 1.939c.008.431-.012.783-.052 1.048l-.035.186c-.01.052-.016.078-.005.077l-.06.053c-.154.113-.475.276-.97.44a2 2 0 00-1.33 2.28l.715 3.667a2 2 0 002.136 1.61l5.856-.506.167-.021c.66-.113 1.25-1.064 1.521-1.684.352-.13.643-.194.873-.194.292.469 1.148 1.436 1.555 1.631 1.74.835 3.03 1.047 4.667.268 1.422-.676 2.25-1.476 2.527-3.02l.082-.453c.29-1.51.063-2.527-.712-3.874-.738-1.283-1.259-1.37-2.23-1.887l-.235-.095c-.476-.177-1.26-.268-1.778-.29l-.123-.003-.616-.886.122-.061c.651-.357 1.117-.9 1.482-1.574l.039-.074c.081-.158.186-.38.247-.512l.056-.06c.954-1.089 1.244-2.972.57-4.574-.59-1.407-3.045-1.783-3.987-.584a4.71 4.71 0 01-.528.584l-.175.145c-.003.003-.003.005 0 .005l-.076.016a2.69 2.69 0 01-.51.021l-.08-.004-1.166-1.232a2 2 0 00-3.334.697l-.297.823z" fill="#FFF" fill-rule="nonzero"/><path d="M9.254 2.7c.124-.265.546-.512.852-.169l1.232 1.38c.052.059 1.344.034 2.12.09.369.026.724.452.466.812-.372.517-.812.993-1.24 1.469-.07.078.361 1.662.577 2.638l-.023-.106c.72.826 1.383 1.707 1.916 2.666l.029.06.011-.001c1.14-.101 1.968-.025 2.486.227.749.366 1.34 1.144 1.666 1.893.63 1.447.393 3.174-.623 4.382-1.052 1.25-3.089 1.303-4.465.59-.841-.434-1.448-1.186-1.769-2.05l-1.149.132-.935.108c-.038.198-.099.393-.19.58-.193.4-.526.725-.896.964-.821.53-1.862.572-2.81.563a8.625 8.625 0 01-1.251-.097l-.057.066c-.149.148-.39.222-.583.284-.388.124-.934.23-1.3-.002-.364-.232-.459-.759-.575-1.144a17.13 17.13 0 01-.531-2.423c-.035-.238-.1-.493-.037-.731.061-.231.215-.394.409-.523.368-.245.794-.325 1.228-.359.049-.004.091-.006.128-.006a2.2 2.2 0 00.277-.706 4.47 4.47 0 00.047-1.29c-.039-.408-.075-.866.153-1.229.59-.938 1.904-.597 2.465.164.038.05.073.103.108.157.245-.793.56-1.565.952-2.298l-.083.164c-.082-.854-.04-2.036-.082-2.07-.514-.414-1.024-.832-1.531-1.255-.35-.29-.095-.762.238-.902.74-.31 2.051-.55 2.086-.622.156-.324.377-.773.663-1.348zm7.752 9.947c-.384-.14-.99-.153-1.816-.039l-.207.077c-.472.187-.868.44-1.217.862-.366.443-.46 1.088-.458 1.653.003 1.151.732 2.291 1.854 2.646a3.502 3.502 0 001.888.053c.488-.128.858-.494 1.113-.916.584-.967.62-2.207.039-3.2-.277-.472-.668-.943-1.196-1.136zM5.964 11.504c-.118-.135-.469-.365-.634-.166a1.176 1.176 0 00-.014.2c-.002.188.021.374.036.56.056.714-.01 1.497-.318 2.151-.124.263-.281.501-.463.719.245.624.446 1.269.58 1.927.082.4.134.805.197 1.208l-.053-.349c.555.096 1.129.104 1.685.09.774-.018 1.78-.106 2.227-.846.233-.386.185-.863.16-1.294-.03-.49-.08-.976-.213-1.45-.098-.343-.24-.67-.62-.748-.435-.089-.88.115-1.266.292-.334.154-.852-.019-.812-.465.053-.6-.083-1.362-.492-1.83zm10.54 1.612a.44.44 0 01.532.301c.07.22-.083.476-.302.531-.158.04-.318.077-.478.11l.007.321c.19-.001.378.014.56.06.416.101.788.407.89.836.102.432-.038.901-.238 1.285-.108.207-.396.268-.59.155a.441.441 0 01-.155-.591c.06-.116.108-.254.14-.412a.525.525 0 00.01-.192v-.016l-.002-.01a.713.713 0 01-.006-.023l-.001-.011-.027-.048.004.003-.003-.006-.007-.009.004.01a2.055 2.055 0 01-.04-.042l-.004-.005.012.01c.005.004 0-.002-.01-.01l-.016-.011a1.235 1.235 0 00-.092-.052l-.008-.006-.026-.005-.09-.024a.714.714 0 00-.166-.018 3.982 3.982 0 00-.123-.003c.01.611.026 1.221.064 1.83.015.235-.209.432-.432.432-.243 0-.417-.198-.431-.431a38.188 38.188 0 01-.06-1.588l-.004-.184a3.99 3.99 0 00-.52.102l.002.026-.004-.026-.005-.031.016.115-.004-.038.035.22c.017.098.037.195.058.293l.072.291a.44.44 0 01-.302.532c-.22.071-.473-.084-.531-.302A7.633 7.633 0 0114 15.102l.004.062a.4.4 0 01.214-.431l.02-.01.079-.037c.402-.154.827-.223 1.254-.263l-.172.018-.004-.247-.43.042c-.215.017-.381-.165-.423-.359l-.009-.073c-.011-.246.207-.414.432-.432a10.461 10.461 0 00.45-.044l.097-.014a9.814 9.814 0 00.992-.198zm-5.371-4.579c-.402-.31-.65-.692-.763-.576-.23.232-.48.45-.713.67-.287.273-.576.545-.867.814l.053-.05c-.515.978-.874 2.034-1.116 3.112.732-.173 1.487-.123 2.017.532.58.716.665 1.788.706 2.697l.89-.103.91-.105a4.059 4.059 0 01.005-.823c.088-.802.34-1.49.895-2.084.239-.256.646-.512 1.008-.707a13.095 13.095 0 00-1.017-1.529l-.015-.02-.007-.01-.006-.007.005.007-.008-.01a31.255 31.255 0 01-.098-.124l-.12-.15c-.174-.212-.352-.42-.534-.626l.028.037c-.443-.267-.847-.631-1.253-.945zm-1.28-4.652l-.074.193c-.217.556-.41.883-.577.98-.172.1-.427.104-.62.144a9.642 9.642 0 00-.632.154c-.402.112-.335.013-.03.262l.437.356c.135.11.316.215.404.367.123.209.085.564.095.797.01.258.01.504 0 .738.514-.441.872-.787 1.075-1.037.2-.248.553-.165.763 0l.35.274.354.275.19.148c.078.06.047.028.134.104l.182.157c-.159-.674-.27-1.18-.33-1.519-.08-.44.4-.821.664-1.125.167-.192.126-.137.08-.137-.3 0-.599-.022-.898-.018-.265.003-.497.037-.708-.169-.302-.295-.654-.577-.86-.944zm4.416 2.679a.406.406 0 01.208.046.403.403 0 01.174.112l.199.232a.54.54 0 01.139.239l.02.143a.537.537 0 01-.075.273l-.084.109a.405.405 0 01-.174.111.408.408 0 01-.208.047.408.408 0 01-.208-.047.404.404 0 01-.173-.111l-.2-.233a.54.54 0 01-.138-.238l-.02-.144c0-.097.025-.188.074-.272l.085-.11a.404.404 0 01.173-.11.406.406 0 01.208-.047zm.744-1.818c.148.02.294.038.438.079.141.04.277.097.41.156a.543.543 0 01.194.194l.055.128a.545.545 0 01-.055.417.407.407 0 01-.138.15.407.407 0 01-.184.098.411.411 0 01-.215.01.405.405 0 01-.201-.065l.027.014-.109-.04a2.108 2.108 0 00-.175-.047l-.115-.021-.027-.002-.026-.008-.011-.002h.007l-.06-.015-.087-.04a37.192 37.192 0 00-.11-.085.54.54 0 01-.138-.238l-.02-.144a.408.408 0 01.047-.208.405.405 0 01.112-.173.406.406 0 01.173-.112.408.408 0 01.208-.046zm1.126-2.107l.095.017.13.054a.544.544 0 01.247.323.55.55 0 01-.054.416c-.06.103-.198.23-.323.248a4.203 4.203 0 00-1.011.284l.046-.018-.03.014a.538.538 0 01-.178.065l-.095.009a32.591 32.591 0 01-.144-.02.544.544 0 01-.322-.248.55.55 0 01-.055-.415c.033-.119.132-.27.248-.323a4.668 4.668 0 011.254-.39.544.544 0 01.287 0z" fill="#FAAB4B"/></g></svg>