<svg width="16" height="16" viewBox="0 0 16 16" xmlns="http://www.w3.org/2000/svg"><path d="M6.273 13.367l.054.073c.27.443.923.76 1.676.76.749 0 1.399-.313 1.672-.754a.5.5 0 01.85.527c-.468.756-1.447 1.227-2.522 1.227-1.081 0-2.065-.477-2.53-1.24a.5.5 0 01.8-.593zM8 1a.7.7 0 01.698.753 4.671 4.671 0 012.668 1.373 4.899 4.899 0 011.398 3.448v2.47c0 .185.087.362.234.474l.668.504c.547.414.765 1.11.556 1.773-.212.673-.792 1.105-1.48 1.105H3.258c-.686 0-1.268-.432-1.48-1.103-.209-.663.01-1.36.556-1.773l.668-.505a.597.597 0 00.234-.473V6.574c0-1.304.497-2.527 1.398-3.448a4.686 4.686 0 012.67-1.375L7.3 1.7A.7.7 0 018 1zm0 1.7c-1.002 0-1.94.397-2.651 1.125a3.89 3.89 0 00-1.106 2.51l-.007.239v2.472c0 .442-.185.865-.505 1.165l-.127.106-.667.504a.597.597 0 00-.205.675c.07.225.231.365.435.397l.09.007h9.485c.248 0 .444-.146.526-.405a.6.6 0 00-.133-.612l-.072-.063-.669-.505a1.597 1.597 0 01-.622-1.106l-.008-.165v-2.47a3.899 3.899 0 00-1.113-2.75A3.676 3.676 0 008 2.7z" fill="#FFF" fill-rule="nonzero"/></svg>