<svg width="20" height="20" viewBox="0 0 20 20" xmlns="http://www.w3.org/2000/svg"><g fill="#FFF" fill-rule="evenodd"><path d="M10 20c5.523 0 10-4.477 10-10 0-1.25-.23-2.47-.672-3.612A10.003 10.003 0 000 10c0 5.523 4.477 10 10 10zm0-1a9 9 0 01-9-9 8.97 8.97 0 01.694-3.471 9.003 9.003 0 0116.701.22A8.976 8.976 0 0119 10a9 9 0 01-9 9z" fill-rule="nonzero"/><path d="M10 16.7c-3.667-2.946-5.5-5.46-5.5-7.543C4.5 6.033 6.962 3.5 10 3.5s5.5 2.533 5.5 5.657c0 2.083-1.833 4.597-5.5 7.543zm0-4.4a3.3 3.3 0 100-6.6 3.3 3.3 0 000 6.6z"/></g></svg>