<svg width="28" height="28" viewBox="0 0 28 28" xmlns="http://www.w3.org/2000/svg"><g fill="none" fill-rule="evenodd"><mask id="svgo-inline-loader-a" fill="#fff"><path d="M19.577 8.572c-1.021-.159-1.964-.871-2.357-1.821l-1.806-3.8c-.55-1.268-2.278-1.268-2.906 0l-1.728 3.8c-.472.95-1.336 1.662-2.357 1.82l-4.084.634c-1.257.158-1.807 1.742-.864 2.692l3.063 3.167c.707.713 1.021 1.742.864 2.771l-.707 4.434c-.235 1.346 1.178 2.296 2.357 1.663l3.456-1.9a3.03 3.03 0 013.063 0l3.456 1.9c1.178.633 2.513-.317 2.356-1.663l-.785-4.434c-.159-1.03.157-2.058.864-2.771l3.063-3.167c.943-.95.393-2.534-.864-2.692l-4.084-.633z"/></mask><path stroke="#FFA726" stroke-width="2" d="M19.423 9.56c-1.37-.213-2.602-1.159-3.106-2.38l-1.82-3.832c-.205-.472-.836-.472-1.079.016l-1.743 3.83c-.623 1.258-1.769 2.16-3.098 2.366l-4.113.637c-.44.056-.633.64-.27 1.005l3.054 3.158c.93.937 1.348 2.283 1.142 3.633l-.71 4.448c-.087.5.433.86.89.614L12 21.17a4.017 4.017 0 014.053-.014l3.447 1.896a.604.604 0 00.899-.608l-.79-4.456c-.206-1.342.212-2.689 1.134-3.618l3.072-3.176c.354-.357.16-.94-.307-1l-4.085-.633z"/><path d="M1 19.17c2.902-1.715 5.644-2.413 8.226-2.095 3.874.476 3.7 2.094 6.677 2.094 2.047 0 4.413-.698 7.098-2.094v8.331H1v-6.237z" fill="#FFA726" mask="url(#svgo-inline-loader-a)"/></g></svg>