<svg width="22" height="28" viewBox="0 0 22 32" xmlns="http://www.w3.org/2000/svg"><path id="svg_1" fill-rule="evenodd" fill="#99a2aa" d="m15.172,21.87103l-11.172,0a2,2 0 0 1 -2,-2l0,-10c0,-0.34 0.084,-0.658 0.233,-0.938l-0.425,-0.426a1,1 0 1 1 1.414,-1.414l15.556,15.556a1,1 0 0 1 -1.414,1.414l-2.192,-2.192zm-10.21,-10.21c-0.577,0.351 -0.962,0.986 -0.962,1.71l0,3a2,2 0 0 0 2,2l3,0a1,1 0 0 0 0,-2l-2,0a1,1 0 0 1 -1,-1l0,-1a1,1 0 0 1 0.713,-0.958l-1.751,-1.752zm1.866,-3.79l11.172,0a2,2 0 0 1 2,2l0,10c0,0.34 -0.084,0.658 -0.233,0.938l-2.48,-2.48a1,1 0 0 0 -0.287,-1.958l-1.672,0l-1.328,-1.328l0,-0.672a1,1 0 0 1 1,-1l2,0a1,1 0 0 0 0,-2l-3,0a2,2 0 0 0 -1.977,1.695l-5.195,-5.195z"/></svg>