<svg width="22" height="22" viewBox="0 0 22 22" xmlns="http://www.w3.org/2000/svg"><path d="M7.542 2.73c.138 0 .266.04.374.11l.077.058a.686.686 0 01.236.519v3.208a.687.687 0 01-1.375 0v-1.43a7.104 7.104 0 004.125 12.889.688.688 0 010 1.374A8.48 8.48 0 016.016 4.104H4.333a.687.687 0 110-1.375h3.209zm3.437-.23a8.48 8.48 0 014.962 15.355h1.684a.687.687 0 110 1.374h-3.208a.687.687 0 01-.688-.687v-3.209a.687.687 0 011.375 0v1.436l.051-.042a7.092 7.092 0 002.923-5.473l.005-.275a7.104 7.104 0 00-7.104-7.104.687.687 0 110-1.375z" fill="#fff" fill-rule="evenodd"/></svg>