<svg viewBox="0 0 24 24" xmlns="http://www.w3.org/2000/svg"><path d="M18.75 3c2.1 0 3.75 1.65 3.75 3.75v10.5c0 2.1-1.65 3.75-3.75 3.75H5.25c-2.1 0-3.75-1.65-3.75-3.75V6.75C1.5 4.65 3.15 3 5.25 3zm0 1.5H5.25C3.975 4.5 3 5.475 3 6.75v10.5c0 1.275.975 2.25 2.25 2.25h13.5c1.275 0 2.25-.975 2.25-2.25V6.75c0-1.275-.975-2.25-2.25-2.25zM5.925 7.65v5.225c.007 1.166.14 2.425 1.95 2.425 1.875 0 1.95-1.35 1.95-2.55v-5.1h1.425v5.625c0 2.25-1.35 3.375-3.45 3.375s-3.3-1.05-3.3-3.3v-5.7h1.425zm10.725 0c2.4 0 2.85 1.65 2.85 2.7 0 1.125-.45 2.7-2.85 2.7H14.4v3.45h-1.425V7.65zM16.575 9H14.4v2.85h2.175c.675 0 1.425-.375 1.425-1.425C18 9.3 17.325 9 16.575 9z" fill="#FFF" fill-rule="nonzero" opacity=".6"/></svg>